<svg xmlns="http://www.w3.org/2000/svg" width="1200" height="760" viewBox="0 0 1200 760">
<rect x="0.0" y="0.0" width="1200.0" height="760.0" fill="#ffffff" />
<text x="150.0" y="38.0" font-family="Arial, Helvetica, sans-serif" font-size="24" font-weight="700" fill="#000000" text-anchor="start">Action Violation Type Per Run</text>
<text x="150.0" y="66.0" font-family="Arial, Helvetica, sans-serif" font-size="12" font-weight="400" fill="#666666" text-anchor="start">Represents exact types of hits by run: Shortcuts, Shell/Admin, and Task-Specific Actions</text>
<rect x="150.0" y="92.0" width="18.0" height="18.0" fill="#1f77b4" />
<text x="178.0" y="106.0" font-family="Arial, Helvetica, sans-serif" font-size="12" font-weight="400" fill="#000000" text-anchor="start">Shortcuts</text>
<rect x="370.0" y="92.0" width="18.0" height="18.0" fill="#ff7f0e" />
<text x="398.0" y="106.0" font-family="Arial, Helvetica, sans-serif" font-size="12" font-weight="400" fill="#000000" text-anchor="start">Shell/Admin</text>
<rect x="590.0" y="92.0" width="18.0" height="18.0" fill="#2ca02c" />
<text x="618.0" y="106.0" font-family="Arial, Helvetica, sans-serif" font-size="12" font-weight="400" fill="#000000" text-anchor="start">Task-Specific Actions</text>
<line x1="230.0" y1="184.0" x2="230.0" y2="562.0" stroke="#666666" stroke-width="1" />
<line x1="230.0" y1="562.0" x2="1130.0" y2="562.0" stroke="#666666" stroke-width="1" />
<line x1="230.0" y1="184.0" x2="230.0" y2="562.0" stroke="#d9d9d9" stroke-width="1" />
<text x="230.0" y="166.0" font-family="Arial, Helvetica, sans-serif" font-size="11" font-weight="400" fill="#666666" text-anchor="middle">0%</text>
<line x1="320.0" y1="184.0" x2="320.0" y2="562.0" stroke="#d9d9d9" stroke-width="1" />
<text x="320.0" y="166.0" font-family="Arial, Helvetica, sans-serif" font-size="11" font-weight="400" fill="#666666" text-anchor="middle">10%</text>
<line x1="410.0" y1="184.0" x2="410.0" y2="562.0" stroke="#d9d9d9" stroke-width="1" />
<text x="410.0" y="166.0" font-family="Arial, Helvetica, sans-serif" font-size="11" font-weight="400" fill="#666666" text-anchor="middle">20%</text>
<line x1="500.0" y1="184.0" x2="500.0" y2="562.0" stroke="#d9d9d9" stroke-width="1" />
<text x="500.0" y="166.0" font-family="Arial, Helvetica, sans-serif" font-size="11" font-weight="400" fill="#666666" text-anchor="middle">30%</text>
<line x1="590.0" y1="184.0" x2="590.0" y2="562.0" stroke="#d9d9d9" stroke-width="1" />
<text x="590.0" y="166.0" font-family="Arial, Helvetica, sans-serif" font-size="11" font-weight="400" fill="#666666" text-anchor="middle">40%</text>
<line x1="680.0" y1="184.0" x2="680.0" y2="562.0" stroke="#d9d9d9" stroke-width="1" />
<text x="680.0" y="166.0" font-family="Arial, Helvetica, sans-serif" font-size="11" font-weight="400" fill="#666666" text-anchor="middle">50%</text>
<line x1="770.0" y1="184.0" x2="770.0" y2="562.0" stroke="#d9d9d9" stroke-width="1" />
<text x="770.0" y="166.0" font-family="Arial, Helvetica, sans-serif" font-size="11" font-weight="400" fill="#666666" text-anchor="middle">60%</text>
<line x1="860.0" y1="184.0" x2="860.0" y2="562.0" stroke="#d9d9d9" stroke-width="1" />
<text x="860.0" y="166.0" font-family="Arial, Helvetica, sans-serif" font-size="11" font-weight="400" fill="#666666" text-anchor="middle">70%</text>
<line x1="950.0" y1="184.0" x2="950.0" y2="562.0" stroke="#d9d9d9" stroke-width="1" />
<text x="950.0" y="166.0" font-family="Arial, Helvetica, sans-serif" font-size="11" font-weight="400" fill="#666666" text-anchor="middle">80%</text>
<line x1="1040.0" y1="184.0" x2="1040.0" y2="562.0" stroke="#d9d9d9" stroke-width="1" />
<text x="1040.0" y="166.0" font-family="Arial, Helvetica, sans-serif" font-size="11" font-weight="400" fill="#666666" text-anchor="middle">90%</text>
<line x1="1130.0" y1="184.0" x2="1130.0" y2="562.0" stroke="#d9d9d9" stroke-width="1" />
<text x="1130.0" y="166.0" font-family="Arial, Helvetica, sans-serif" font-size="11" font-weight="400" fill="#666666" text-anchor="middle">100%</text>
<text x="188.0" y="208.0" font-family="Arial, Helvetica, sans-serif" font-size="12" font-weight="400" fill="#000000" text-anchor="start">Run 1</text>
<rect x="230.0" y="190.0" width="540.0" height="28.0" fill="#1f77b4" />
<rect x="770.0" y="190.0" width="360.0" height="28.0" fill="#ff7f0e" />
<rect x="230.0" y="190.0" width="900.0" height="28.0" fill="none" stroke="#bdbdbd" />
<text x="188.0" y="264.0" font-family="Arial, Helvetica, sans-serif" font-size="12" font-weight="400" fill="#000000" text-anchor="start">Run 2</text>
<rect x="230.0" y="246.0" width="487.5" height="28.0" fill="#1f77b4" />
<rect x="717.5" y="246.0" width="375.0" height="28.0" fill="#ff7f0e" />
<rect x="1092.5" y="246.0" width="37.5" height="28.0" fill="#2ca02c" />
<rect x="230.0" y="246.0" width="900.0" height="28.0" fill="none" stroke="#bdbdbd" />
<text x="188.0" y="320.0" font-family="Arial, Helvetica, sans-serif" font-size="12" font-weight="400" fill="#000000" text-anchor="start">Run 3</text>
<rect x="230.0" y="302.0" width="900.0" height="28.0" fill="#1f77b4" />
<rect x="230.0" y="302.0" width="900.0" height="28.0" fill="none" stroke="#bdbdbd" />
<text x="188.0" y="376.0" font-family="Arial, Helvetica, sans-serif" font-size="12" font-weight="400" fill="#000000" text-anchor="start">Run 4</text>
<rect x="230.0" y="358.0" width="280.0" height="28.0" fill="#1f77b4" />
<rect x="510.0" y="358.0" width="20.0" height="28.0" fill="#ff7f0e" />
<rect x="530.0" y="358.0" width="600.0" height="28.0" fill="#2ca02c" />
<rect x="230.0" y="358.0" width="900.0" height="28.0" fill="none" stroke="#bdbdbd" />
<text x="188.0" y="432.0" font-family="Arial, Helvetica, sans-serif" font-size="12" font-weight="400" fill="#000000" text-anchor="start">Run 5</text>
<rect x="230.0" y="414.0" width="429.2" height="28.0" fill="#1f77b4" />
<rect x="659.2" y="414.0" width="55.4" height="28.0" fill="#ff7f0e" />
<rect x="714.6" y="414.0" width="415.4" height="28.0" fill="#2ca02c" />
<rect x="230.0" y="414.0" width="900.0" height="28.0" fill="none" stroke="#bdbdbd" />
<text x="188.0" y="488.0" font-family="Arial, Helvetica, sans-serif" font-size="12" font-weight="400" fill="#000000" text-anchor="start">Run 6</text>
<rect x="230.0" y="470.0" width="417.9" height="28.0" fill="#1f77b4" />
<rect x="647.9" y="470.0" width="160.7" height="28.0" fill="#ff7f0e" />
<rect x="808.6" y="470.0" width="321.4" height="28.0" fill="#2ca02c" />
<rect x="230.0" y="470.0" width="900.0" height="28.0" fill="none" stroke="#bdbdbd" />
<text x="188.0" y="544.0" font-family="Arial, Helvetica, sans-serif" font-size="12" font-weight="400" fill="#000000" text-anchor="start">Run 7</text>
<rect x="230.0" y="526.0" width="245.5" height="28.0" fill="#1f77b4" />
<rect x="475.5" y="526.0" width="65.5" height="28.0" fill="#ff7f0e" />
<rect x="540.9" y="526.0" width="589.1" height="28.0" fill="#2ca02c" />
<rect x="230.0" y="526.0" width="900.0" height="28.0" fill="none" stroke="#bdbdbd" />
<text x="74.0" y="372.0" font-family="Arial, Helvetica, sans-serif" font-size="13" font-weight="700" fill="#000000" text-anchor="middle" transform="rotate(-90 74.0 372.0)">Run</text>
<text x="680.0" y="604.0" font-family="Arial, Helvetica, sans-serif" font-size="13" font-weight="700" fill="#000000" text-anchor="middle">Share of Type of Action Violation</text>
<text x="150.0" y="642.0" font-family="Arial, Helvetica, sans-serif" font-size="12" font-weight="400" fill="#666666" text-anchor="start">Types shown here: Shortcuts (e.g. Ctrl+W, Ctrl+X, Delete), Shell/Admin (e.g. wget, sudo, git push),</text>
<text x="150.0" y="662.0" font-family="Arial, Helvetica, sans-serif" font-size="12" font-weight="400" fill="#666666" text-anchor="start">and Task-Specific Actions (e.g. find, chmod 644, wc -l).</text>
</svg>